<?xml version="1.0" standalone="no"?>
<!DOCTYPE svg PUBLIC "-//W3C//DTD SVG 20010904//EN"
 "http://www.w3.org/TR/2001/REC-SVG-20010904/DTD/svg10.dtd">
<svg version="1.0" xmlns="http://www.w3.org/2000/svg"
 width="234.000000pt" height="234.000000pt" viewBox="0 0 234.000000 234.000000"
 preserveAspectRatio="xMidYMid meet">
<metadata>
Created by potrace 1.11, written by Peter Selinger 2001-2013
</metadata>
<g transform="translate(0.000000,234.000000) scale(0.100000,-0.100000)"
fill="#000000" stroke="none">
<path d="M687 2018 c26 -35 55 -71 64 -81 16 -17 42 -18 547 -15 291 2 534 2
540 0 6 -2 1 -44 -14 -112 -13 -60 -25 -119 -28 -132 -3 -13 -9 -45 -15 -73
-5 -27 -31 -149 -56 -270 -26 -121 -49 -231 -51 -245 -3 -14 -14 -65 -24 -113
l-19 -88 64 -86 c63 -83 64 -84 70 -56 4 15 9 36 12 45 2 10 6 30 9 45 2 16 9
48 14 73 5 25 12 56 14 70 2 14 18 90 35 170 16 80 32 156 35 170 2 14 9 48
15 75 6 28 12 61 15 75 2 14 16 84 31 155 15 72 35 167 44 212 l17 83 -28 32
c-16 18 -45 54 -65 81 l-37 47 -619 0 -618 0 48 -62z"/>
<path d="M557 1999 c-10 -41 -20 -85 -23 -99 -3 -14 -16 -74 -30 -135 -13 -60
-26 -119 -29 -130 -16 -80 -61 -287 -70 -325 -7 -30 -62 -281 -69 -315 -2 -11
-9 -40 -15 -65 -6 -25 -11 -52 -11 -60 0 -8 33 -50 74 -93 l73 -77 616 2 617
3 -56 70 c-30 39 -59 74 -64 79 -5 5 -194 10 -422 11 -227 2 -470 3 -539 4
l-126 1 39 173 c21 94 40 181 42 192 15 74 39 186 62 285 14 63 28 126 30 140
2 14 14 68 25 120 11 52 21 100 22 107 1 6 -23 44 -53 84 -30 40 -60 79 -66
87 -8 11 -14 -2 -27 -59z"/>
<path d="M958 1517 c-16 -6 -28 -16 -29 -21 -1 -15 -1 -195 0 -223 1 -19 7
-23 31 -23 l30 0 0 140 c0 77 -1 140 -2 139 -2 -1 -15 -6 -30 -12z"/>
<path d="M1075 1515 l-30 -15 0 -125 0 -125 32 0 32 0 0 140 c0 77 -1 140 -2
140 -1 0 -15 -7 -32 -15z"/>
<path d="M783 1449 c-41 -8 -63 -26 -57 -44 4 -10 12 -11 35 -3 31 10 59 5 59
-11 0 -5 -18 -12 -40 -16 -48 -8 -80 -43 -72 -80 6 -33 41 -56 72 -49 14 4 42
6 63 5 41 -2 39 -6 39 87 -1 96 -28 126 -99 111z m37 -129 c0 -23 -22 -35 -45
-26 -13 4 -14 10 -5 26 14 27 50 27 50 0z"/>
<path d="M1525 1449 c-11 -4 -31 -5 -44 -2 -13 3 -26 1 -30 -5 -4 -8 -6 -217
-2 -265 1 -5 13 -7 29 -5 24 3 27 7 30 46 3 34 6 41 16 33 19 -16 83 6 102 34
28 43 23 117 -11 145 -21 17 -68 28 -90 19z m43 -51 c21 -21 15 -85 -10 -102
-31 -22 -48 -4 -48 54 0 25 3 50 7 53 10 11 38 8 51 -5z"/>
<path d="M1231 1360 c1 -57 6 -93 14 -100 20 -17 73 -18 95 -3 12 8 20 10 20
4 0 -6 10 -11 23 -11 23 0 23 3 26 100 l2 100 -31 0 -30 0 0 -74 c0 -64 -2
-74 -19 -79 -31 -8 -41 13 -41 85 l0 68 -31 0 -30 0 2 -90z"/>
<path d="M1526 561 c-7 -11 3 -41 13 -41 18 0 30 24 20 37 -13 15 -26 17 -33
4z"/>
<path d="M1284 552 c-7 -4 -11 -53 -12 -134 0 -120 1 -128 19 -128 18 0 19 8
19 135 0 74 -3 135 -7 135 -5 0 -13 -4 -19 -8z"/>
<path d="M1381 518 c-5 -12 -7 -26 -4 -30 2 -4 -3 -5 -11 -2 -11 4 -16 0 -16
-15 0 -12 5 -20 12 -18 8 1 13 -20 14 -67 2 -38 5 -75 8 -81 6 -16 47 -24 75
-13 26 9 18 32 -8 23 -27 -8 -38 14 -35 75 3 74 2 71 22 69 9 -1 24 -1 32 0
23 2 -7 26 -33 26 -17 0 -22 6 -22 24 0 32 -23 39 -34 9z"/>
<path d="M279 475 c-52 -28 -63 -109 -21 -155 32 -35 89 -46 122 -23 24 17 17
37 -8 25 -71 -34 -135 59 -81 117 18 19 29 22 60 18 28 -4 39 -1 39 8 0 26
-70 32 -111 10z"/>
<path d="M455 468 c-56 -49 -37 -158 32 -177 45 -13 84 2 106 38 59 99 -53
212 -138 139z m99 -30 c51 -72 -28 -168 -81 -100 -32 40 -3 122 42 122 13 0
31 -10 39 -22z"/>
<path d="M667 483 c-2 -5 -4 -50 -4 -100 0 -84 1 -93 18 -93 17 0 19 8 19 75
0 62 3 76 18 84 22 12 48 9 64 -7 6 -6 12 -42 13 -79 1 -56 4 -68 18 -71 19
-4 21 6 18 96 0 29 -5 62 -11 72 -14 26 -56 36 -94 21 -20 -7 -32 -8 -34 -1
-4 12 -19 13 -25 3z"/>
<path d="M902 483 c-22 -9 -33 -40 -23 -66 6 -16 23 -29 48 -37 54 -18 68 -41
34 -59 -11 -7 -30 -7 -50 -1 -34 10 -49 -1 -26 -20 20 -16 90 -16 110 0 19 16
19 64 0 83 -8 9 -28 18 -44 22 -54 12 -52 58 3 55 46 -3 50 -1 36 15 -12 14
-61 19 -88 8z"/>
<path d="M1055 481 c-10 -16 -3 -126 10 -157 15 -37 40 -46 88 -29 26 9 37 9
40 1 2 -6 8 -8 13 -3 10 9 13 172 3 188 -16 27 -29 -6 -29 -76 0 -76 -5 -85
-50 -85 -28 0 -40 30 -40 98 0 43 -4 61 -15 65 -8 4 -17 2 -20 -2z"/>
<path d="M1529 486 c-1 -1 -2 -45 -3 -99 -1 -86 1 -97 17 -97 19 0 19 -1 19
95 -1 102 -1 102 -17 102 -8 0 -16 -1 -16 -1z"/>
<path d="M1616 483 c-3 -3 -6 -48 -6 -100 0 -86 1 -93 20 -93 18 0 20 7 20 74
0 82 11 100 55 92 15 -3 30 -8 33 -10 3 -3 6 -38 7 -78 1 -60 4 -74 18 -76 19
-4 18 -6 19 63 0 86 -1 94 -22 115 -21 21 -84 28 -95 10 -4 -7 -12 -7 -24 0
-10 5 -21 6 -25 3z"/>
<path d="M1877 479 c-23 -13 -47 -62 -47 -94 0 -66 61 -115 117 -94 32 12 35
9 19 -21 -11 -22 -18 -25 -64 -24 -29 1 -52 -2 -52 -6 0 -14 57 -32 90 -28 53
5 71 39 71 133 1 132 0 142 -16 142 -8 0 -15 -4 -15 -9 0 -5 -9 -4 -19 2 -25
13 -61 12 -84 -1z m94 -43 c6 -70 5 -88 -6 -102 -16 -22 -65 -21 -82 2 -21 29
-16 82 12 109 21 22 27 24 50 13 14 -6 25 -16 26 -22z"/>
</g>
</svg>
